<svg width="34px" height="34px" viewBox="0 0 34 34" version="1.1" xmlns="http://www.w3.org/2000/svg" xmlns:xlink="http://www.w3.org/1999/xlink">
    <title>original</title>
    <g id="original" stroke="none" stroke-width="1" fill="none" fill-rule="evenodd">
        <g id="Group" transform="translate(0.000000, 1.000000)" fill="#DB3534" fill-rule="nonzero">
            <g id="red-tech-mark">
                <path d="M32.969697,29.9354839 L27.9666965,29.9354839 L16.4848485,16.516129 L21.4878489,16.516129 L32.969697,29.9354839 Z M28.9100717,4.2591636 C27.5714199,2.84837217 25.7162157,2.05477988 23.7797902,2.06451613 L4.84511193,2.06451613 C4.12449729,2.06494397 3.47470343,2.5019555 3.19756772,3.17264357 C2.92043201,3.84333164 3.07027247,4.61624279 3.57748634,5.13235013 L9.46037269,11.0700185 L14.4940878,11.0607457 L9.15381269,5.66398936 L23.7782574,5.66398936 C24.7248068,5.66067237 25.6334039,6.03896262 26.3018553,6.71467782 C26.9703068,7.39039302 27.3431514,8.30746949 27.3374189,9.26182694 C27.3440887,10.2135442 26.9719455,11.1282067 26.3043117,11.8010224 C25.6348298,12.4761538 24.7266638,12.8553196 23.7797902,12.8550281 L4.60446233,12.8519372 C3.15942751,12.8496116 1.85565507,13.7262231 1.30235202,15.0721619 C0.749048981,16.4181007 1.0554592,17.9676254 2.07840795,18.9966976 L12.9290991,29.9354839 L17.9704782,29.9354839 L4.60446233,16.4497748 L23.7797902,16.4590476 C25.6706571,16.4594576 27.4841959,15.7022898 28.8212408,14.3541992 C30.1582857,13.0061086 30.9090909,11.1775877 30.9090909,9.27109972 C30.9244165,7.40001759 30.205985,5.59854448 28.9100717,4.2591636 L28.9100717,4.2591636 Z M19.5757576,22.7096774 L16.7008587,22.7096774 L11.3333333,17.5483871 L14.197759,17.5483871 L19.5757576,22.7096774 Z M23.6969697,29.9354839 L20.8243451,29.9354839 L15.4545455,24.7741935 L18.3219312,24.7741935 L23.6969697,29.9354839 Z"></path>
            </g>
        </g>
    </g>
</svg>